<?xml version="1.0" encoding="utf-8"?>
<!-- Generator: Adobe Illustrator 27.7.0, SVG Export Plug-In . SVG Version: 6.00 Build 0)  -->
<svg version="1.1" id="Layer_1" xmlns="http://www.w3.org/2000/svg" xmlns:xlink="http://www.w3.org/1999/xlink" x="0px" y="0px"
	 viewBox="0 0 595.28 841.89" style="enable-background:new 0 0 595.28 841.89;" xml:space="preserve">
<style type="text/css">
	.st0{fill:#87CBB9;}
	.st1{fill:#0B666A;}
</style>
<path class="st0" d="M42.12,429.25c-0.2-24.36,9.33-40.52,25.64-53.48c9.35-7.43,20.29-11.69,30.63-17.21
	c16.4-8.75,31.8-19.09,40.17-36.54c2.17-4.52,4.04-9.74,3.67-15.26c-0.31-4.64-0.1-9.32-0.16-13.98c-0.04-2.79,1.22-4.56,4.06-4.59
	c2.62-0.03,3.66,1.28,4.24,4.18c2.34,11.76,0.35,23.21-3.57,33.98c-2.88,7.93-8.85,14.56-15.33,20.32
	c-9.38,8.34-20.16,14.21-31.35,19.92c-13.8,7.05-28.01,14.05-38.12,26.82c-12.34,15.59-14.21,35.58-6.36,51.94
	c4.1,8.55,9.89,16.53,19.63,20.12c2.81,1.03,4.03,3.31,2.72,5.94c-1.41,2.82-4,3.13-6.79,1.59
	C55.32,464.24,41.6,449.89,42.12,429.25z"/>
<path class="st0" d="M551.29,417.99c-0.41,22.84-11.53,39.57-29.97,52.13c-10.05,6.85-21.68,10.69-32.08,16.88
	c-14.08,8.38-27.71,17.22-34.08,33.4c-3.17,8.05-5.08,16.48-3.55,25.1c0.61,3.44,0.49,6.48-2.62,7.31c-4.17,1.11-5.49-3-5.67-5.91
	c-0.43-7.07-0.13-14.08,1.19-21.21c3.94-21.22,18.7-33.11,35.71-43.27c9.91-5.92,20.46-10.72,30.54-16.26
	c18.4-10.11,29.86-25.37,31.57-47.42c1.46-18.89-7.03-31.4-22.24-40.72c-2.23-1.37-4.99-2.54-4.92-5.65
	c0.05-2.25,2.16-3.31,4.05-3.89c1.99-0.62,3.8,0.49,5.51,1.45c11.74,6.58,20.03,16.12,24.3,28.92
	C551.09,405.01,551.58,411.43,551.29,417.99z"/>
<path class="st0" d="M296.26,598.89c16.01-0.33,29.78,6.11,43.25,13.91c10.15,5.88,19.19,13.63,29.75,18.62
	c21.93,10.36,41.22,11.26,60.53-4.28c11.11-8.95,17.06-20.81,16.4-35.5c-0.13-2.81-0.9-6.67,3.73-6.53
	c3.78,0.12,5.23,2.93,5.22,6.54c-0.04,21.61-11.19,40.79-30.99,49.85c-10.64,4.87-22.01,6.29-34.13,5.27
	c-18.22-1.53-31.8-12.05-46.28-20.94c-12.38-7.6-24.89-14.82-39.23-17.76c-14.71-3.01-27.65,1.72-39.35,10.5
	c-2.25,1.69-4.62,2.51-7.22,1.13c-2.19-1.16-1.9-3.34-1.52-5.31c0.39-2.04,2.44-2.86,3.86-3.63c8.35-4.52,16.26-10.05,26.05-11.47
	C289.66,598.82,292.93,599.24,296.26,598.89z"/>
<path class="st0" d="M442.12,283.91c0.34-4.21-0.01-11.65,0.72-19.13c1.29-13.29-0.35-26.37-6.74-38.47
	c-12.56-23.76-40.9-33.85-65.05-20.42c-1.34,0.75-2.63,1.34-4.2,1.33c-1.89-0.02-3.83,0.06-4.46-2.23c-0.56-2.02-0.44-3.9,1.67-5.2
	c11.05-6.79,22.95-9.96,35.94-8.55c9.32,1.01,18.13,3.9,25.58,9.47c15.8,11.82,24.33,27.91,25.46,47.61
	c1.01,17.65-1.78,35.34-0.56,52.93c1.17,17.01,7.6,32.13,22.34,42.35c3.92,2.72,8.1,5.08,12.27,7.4c1.99,1.11,3.14,2.8,2.69,4.71
	c-0.44,1.85-2.4,2.33-4.43,2.46c-3.38,0.22-5.83-1.53-8.68-2.85c-15.06-6.96-23.5-19.2-28.69-34.34
	C442.18,309.97,441.66,298.62,442.12,283.91z"/>
<path class="st0" d="M152.42,554.84c-0.18,11.78-1.6,23.5-1.24,35.31c0.68,22.11,10.96,38.58,30.39,48.25
	c13.77,6.86,28.32,5.19,41.84-2.45c2.62-1.48,5.48-3.32,7.4-0.27c1.93,3.05,0.11,5.76-2.98,7.77c-6.99,4.55-14.81,6.73-22.87,7.4
	c-23.25,1.95-40.64-8.15-52.77-27.51c-9.22-14.71-11.64-30.89-9.48-48.1c1.08-8.55,0.13-17.33,0.97-25.92
	c0.78-7.94-1.13-15.4-2.93-22.81c-4-16.47-15.2-27.04-30-34.2c-1.27-0.61-2.16-1.41-3.11-2.3c-1.53-1.44-1.86-3.37-1.17-5.04
	c0.92-2.21,3.08-1.33,4.69-0.85c11.46,3.41,21.32,9.58,28.38,19.19c7.48,10.19,10.77,22.07,11.92,34.69
	C151.96,543.62,152.3,549.21,152.42,554.84z"/>
<path class="st1" d="M293.85,166.17c19.5,1.63,35.61,9.58,48.01,25.21c9.5,11.97,14.59,26.32,22.19,39.3
	c5.65,9.65,11.76,18.98,20.52,25.7c11.01,8.46,23.83,12.54,38.06,10.1c2.59-0.44,5.63-1.4,6.41,2.44c0.67,3.3-0.58,4.8-4.41,5.38
	c-24.93,3.76-43.87-5.91-58.53-25.44c-8.19-10.92-14.45-22.95-20.24-35.3c-6.51-13.86-15.79-25.24-29.54-32.99
	c-19.31-10.88-50.29-5.78-62.07,15.78c-0.72,1.31-1.28,2.93-2.39,3.76c-1.61,1.2-3.54,2.95-5.77,1.32
	c-2.17-1.58-2.64-3.89-1.25-6.19c7.14-11.82,16.29-21.14,29.96-25.46C281.03,167.81,287.1,165.74,293.85,166.17z"/>
<path class="st1" d="M470.41,271.86c-1.43-0.28-4.43,1.28-6.86-0.98c-1.33-1.24-3.07-2.46-2.19-4.58c0.72-1.72,2.14-2.88,4.19-3.03
	c10.06-0.75,19.7,1.05,28.36,6.11c8.12,4.75,15.52,10.49,20.39,18.96c6.85,11.92,9.94,24.34,8.25,38.28
	c-1.43,11.81-4.64,22.83-11.36,32.43c-6.24,8.9-12.11,17.96-17.31,27.49c-6.16,11.29-10.87,22.9-10.86,36.11
	c0.01,10.87,4.11,20.08,10.18,28.7c0.67,0.95,1.46,1.82,2.05,2.81c1.36,2.3,1.29,4.61-0.97,6.19c-2.13,1.49-4.06,0.57-5.65-1.31
	c-7.2-8.49-11.44-18.26-13.57-29.19c-2.69-13.81,1.9-26.17,7.08-38.33c6-14.09,15.44-26.23,23.36-39.24
	c14.15-23.22,13.22-52.26-7.94-70.44C490.26,275.55,481.57,272,470.41,271.86z"/>
<path class="st1" d="M119.46,419.82c-0.78,11-3.61,21.96-8.72,32.74c-6.24,13.17-15.03,24.65-22.24,37.15
	c-11.45,19.86-13.52,39.88-1.36,60.08c6.6,10.97,16.74,17.39,29.16,20.23c3.72,0.85,7.49,1.29,11.32,0.99
	c2.75-0.22,4.6,0.65,4.6,3.76c0,3-1.89,4.07-4.52,4.17c-6.99,0.28-13.88-0.36-20.47-2.89c-14.04-5.39-24.65-14.77-30.97-28.39
	c-7.45-16.08-7.41-32.37-1.25-49.14c4.71-12.83,13.29-23.14,20.15-34.56c6.53-10.85,12.4-21.88,15.01-34.36
	c3.23-15.43-1.53-28.85-10.89-40.93c-1.73-2.23-3.16-4.1-0.57-6.33c2.55-2.2,4.8-1.35,6.76,1.14
	C113.7,393.95,119.03,405.52,119.46,419.82z"/>
<path class="st1" d="M162.6,276.03c-10.46,0.81-21.66-1.38-33-1.05c-18.54,0.53-34.43,7.18-45.28,22.01
	c-10.18,13.92-13.47,30.92-3.17,48.8c1.18,2.05,2.26,3.99,2.08,6.51c-0.18,2.55-2.21,2.46-3.79,3.22c-1.73,0.82-2.38-0.15-3.15-1.35
	c-9.71-15.2-12.28-31.45-5.67-48.34c10.37-26.5,31.72-37.39,58.68-39.45c7.48-0.57,14.94,0.59,22.41,1.13
	c17.67,1.28,35.23,1.03,51.59-7.25c10.58-5.36,17.33-14.15,21.95-24.8c0.26-0.61,0.53-1.21,0.82-1.8c1.23-2.46,2.79-3.89,5.89-2.76
	c3.34,1.22,2.58,3.8,1.79,5.74c-5,12.38-12.28,22.96-24.23,29.77C195.19,274.55,179.59,276.54,162.6,276.03z"/>
<path class="st1" d="M177.88,575.05c-2.27,0.18-4.79,0.2-7.24,0.62c-2.92,0.5-5.69,0.4-6.27-3c-0.62-3.63,2.41-5.09,5.19-5.45
	c3.77-0.49,7.71-0.57,11.46-0.05c7.63,1.06,15.18,1.8,22.53,5.29c10.01,4.77,17.52,11.82,23.94,20.38
	c10.02,13.38,17.18,28.37,24.49,43.33c4.17,8.53,11.28,14.84,18.63,20.9c7.64,6.29,16.74,9.55,25.86,10.41
	c8.22,0.77,17.21-0.54,24.97-4.73c7.53-4.07,14.23-9.19,18.12-17.2c0.5-1.03,1.34-1.9,2.01-2.85c1.46-2.07,3.09-3.53,5.82-2.01
	c2.91,1.62,1.85,3.84,0.9,5.95c-5.56,12.31-14.95,20.49-27.45,25.23c-13.71,5.2-27.41,5.33-41.08-0.25
	c-15.87-6.48-27.28-17.89-35.35-32.69c-7.51-13.79-13.72-28.29-23.17-40.99C210.46,583.48,196.16,575.78,177.88,575.05z"/>
<path class="st0" d="M297.67,243.15c-10.8,2.03-19.67-3.52-29.23-6.78c-8.56-2.92-15.77-7.96-23.47-12.28
	c-5.19-2.9-9.68-6.84-14.58-10.15c-7.94-5.37-16.83-7.64-25.74-9.62c-19.8-4.41-35.83,3.01-48.08,18.25
	c-6.07,7.56-9.81,16.68-9.25,26.9c0.05,0.83-0.06,1.67,0,2.5c0.24,3.18-1.79,3.94-4.36,4.15c-2.87,0.23-3.78-1.36-3.81-3.96
	c-0.12-9.93,2.04-19.02,6.65-28.12c7.45-14.71,19.36-22.84,34.38-27.51c8.78-2.73,17.87-1.97,26.72-0.89
	c14.57,1.77,26.2,10.17,38.34,17.79c11,6.9,21.76,14.31,34.36,18.81c9.31,3.33,18.36,2.65,27.17,1.39
	c7.33-1.05,15.03-3.76,21.04-8.96c1.5-1.3,3.21-1.77,4.85-2.21c1.93-0.51,3.37,0.93,4.03,2.75c0.66,1.84,0.68,3.83-1.43,4.69
	c-6.71,2.73-12.6,6.97-18.89,10.44C310.17,243.76,303.9,242.74,297.67,243.15z"/>
<path class="st1" d="M457.66,574.98c-10.46,0.74-20.18-0.91-29.97-1c-12.28-0.12-24.17,1.75-35.29,6.93
	c-8.83,4.12-16.04,10.38-20.5,19.3c-1.46,2.93-3.65,5.43-4.48,8.75c-0.68,2.71-2.94,3.6-5.51,2.63c-2.66-1.01-3.43-3.5-2.42-5.78
	c8.24-18.45,20.89-31.92,41.38-36.79c11.59-2.76,23.31-3.7,35.07-2.82c6.86,0.51,13.8,1.13,20.63,1.5
	c22.66,1.22,50.95-8.3,59.78-36.3c4.09-12.96,2.46-25.8-4.67-37.68c-1.19-1.98-3-4.4-0.16-6.02c2.85-1.63,5.69-0.98,7.59,2.28
	c3.2,5.49,4.62,11.5,6.37,17.55c2.59,8.98,2,17.55-1.01,25.82c-8.87,24.31-26.38,38.2-53.46,41.54
	C466.39,575.47,461.67,574.98,457.66,574.98z"/>
<path class="st0" d="M397.67,586.32c1.49,0.05,2.28,0.9,2.88,1.93c4,6.87,7.58,14.04,12.12,20.54c2.59,3.72,3.34,8.23,6.24,11.68
	c0.61,0.73,0.99,1.75,1.19,2.69c0.29,1.34,0.19,2.78-1.25,3.46c-1.74,0.81-2.4-0.83-3-1.83c-4.8-7.99-9.52-16.02-14.21-24.08
	c-1.97-3.39-3.7-6.91-5.68-10.3C394.54,588,395.06,586.71,397.67,586.32z"/>
<path class="st0" d="M80.73,422.03c6.32,0,12.63-0.01,18.95,0.01c1.67,0,3.45-0.14,3.55,2.35c0.1,2.45-1.58,2.62-3.31,2.62
	c-12.8,0.01-25.6,0.01-38.39-0.04c-1.84-0.01-4.17-0.21-4.04-2.57c0.12-2.27,2.48-2.32,4.3-2.33c6.32-0.04,12.63-0.02,18.95-0.02
	C80.73,422.04,80.73,422.03,80.73,422.03z"/>
<path class="st0" d="M513.62,415.05c6.14,0,12.29,0,18.43,0c1.84,0,4.05-0.16,4.03,2.45c-0.01,2.24-2.03,2.29-3.71,2.3
	c-12.62,0.02-25.24,0.06-37.85-0.05c-1.78-0.02-4.55,0.22-4.23-2.8c0.28-2.62,2.76-1.84,4.41-1.87
	C501,414.99,507.31,415.05,513.62,415.05z"/>
<path class="st1" d="M298.43,637.51c0-6.14-0.03-12.28,0.02-18.41c0.01-1.73-0.5-4.01,2.38-3.95c2.54,0.05,2.09,2.13,2.1,3.7
	c0.03,12.28,0.02,24.55,0,36.83c0,1.8,0.22,4.19-2.36,4.06c-2.5-0.12-2.12-2.53-2.13-4.31C298.4,649.46,298.42,643.48,298.43,637.51
	z"/>
<path class="st0" d="M198.15,252.65c0.11,2.59-1.24,2.66-2.63,2.35c-1.56-0.35-2.53-1.52-3.2-2.9
	c-5.09-10.43-10.98-20.4-17.52-29.99c-0.18-0.27-0.45-0.58-0.44-0.87c0.02-1.93-2.77-4.39,0.23-5.64c2.45-1.02,3.71,1.83,4.68,3.47
	c6.06,10.23,11.91,20.59,17.8,30.92C197.63,250.96,197.93,252.09,198.15,252.65z"/>
<path class="st1" d="M93.62,544.79c-1.05,0.06-1.72-0.5-2.02-1.28c-0.54-1.42,0.67-2.24,1.54-2.8c4.75-3.01,9.54-5.99,14.42-8.78
	c6.62-3.78,13.36-7.36,20.02-11.05c1.27-0.7,2.78-1.21,3.58,0.06c0.8,1.28-0.27,2.46-1.54,3.18c-11.6,6.66-23.2,13.32-34.8,19.98
	C94.41,544.34,93.98,544.58,93.62,544.79z"/>
<path class="st1" d="M90.42,304.15c1.9,0.82,4.24,1.39,6.07,2.68c8.89,6.33,19.11,10.31,28.24,16.22c1.76,1.14,3.81,2.06,2.26,4.43
	c-1.38,2.12-2.99,0.17-4.24-0.53c-10.24-5.73-20.44-11.56-30.62-17.4c-1.27-0.73-2.45-1.67-3.53-2.66c-0.4-0.37-0.61-1.25-0.48-1.8
	C88.36,304.08,89.37,304.23,90.42,304.15z"/>
<path class="st1" d="M467.9,513.99c2.51,0.55,4.5,1.67,6.51,2.85c8.77,5.11,17.58,10.14,26.37,15.21c1,0.58,2.06,1.1,2.95,1.83
	c1.23,1,2.14,2.49,1.09,3.88c-0.97,1.29-2.44,0.35-3.55-0.31c-8.26-4.84-16.59-9.56-24.7-14.65c-3.05-1.92-6.92-2.33-9.33-5.38
	c-0.67-0.84-1.34-1.57-0.81-2.57C466.67,514.39,467.46,514.23,467.9,513.99z"/>
<path class="st0" d="M414.25,214.83c-0.21,0.51-0.48,1.29-0.86,2.01c-5.75,10.83-13.08,20.77-17.85,32.15
	c-0.42,1-1.51,1.76-2.38,2.52c-1.05,0.92-2.13,0.62-3.16-0.17c-1.17-0.9-1.07-2-0.43-3.09c6.64-11.17,13.3-22.32,19.97-33.48
	c0.42-0.71,0.9-1.4,1.45-2c0.63-0.68,1.51-0.74,2.3-0.39C414.19,212.78,414.14,213.71,414.25,214.83z"/>
<path class="st0" d="M204.95,593.52c-2.92,3.52-5.31,7.62-7.65,11.77c-4.1,7.25-8.89,14.11-12.25,21.79
	c-0.75,1.71-2.07,3.99-4.48,2.6c-2.44-1.41-0.32-3.11,0.37-4.64c5.1-11.32,13.07-21.04,18.14-32.36c1.04-2.32,2.65-1.54,4.12-1.47
	C204.18,591.25,204.92,592.08,204.95,593.52z"/>
<path class="st1" d="M465.27,321.96c-1.3-0.05-2.09-0.3-2.38-1.22c-0.52-1.65,0.63-2.44,1.81-3.11c7.01-4.03,14.03-8.05,21.06-12.05
	c3.85-2.19,7.71-4.37,11.58-6.53c1.45-0.81,3.25-1.89,4.38-0.08c1.22,1.96-1.18,2.49-2.22,3.11c-10.72,6.45-21.52,12.78-32.31,19.12
	C466.48,321.6,465.67,321.81,465.27,321.96z"/>
<path class="st1" d="M291.39,204.13c0-5.99-0.06-11.98,0.04-17.97c0.03-1.5-0.64-4.03,1.64-4.02c2.26,0.01,2.22,2.45,2.23,4.29
	c0.02,8.32,0.02,16.64,0.02,24.96c0,3.66,0.15,7.33-0.06,10.98c-0.1,1.66,1.26,4.7-2,4.54c-3.06-0.15-1.76-3.09-1.81-4.8
	C291.29,216.11,291.39,210.12,291.39,204.13z"/>
<path class="st0" d="M385.33,603.09c1.91-0.06,2.94,1.22,3.23,2.29c1.89,7.07,6.3,12.86,9.5,19.26c0.82,1.65,2.63,3.73,0.18,5.17
	c-2.48,1.46-3.32-1.23-4.34-2.7c-4.23-6.1-7.01-12.99-10.36-19.56C382.58,605.66,382.81,603.59,385.33,603.09z"/>
<path class="st0" d="M210.39,236.16c-0.31,1.29,0.14,2.51-1.25,2.83c-1.65,0.38-2.57-0.86-3.17-1.93
	c-2.67-4.72-5.19-9.53-7.72-14.33c-1.14-2.17-2.27-4.35-3.21-6.61c-0.74-1.78-0.32-3.82,1.27-4.64c1.75-0.9,2.49,1.01,3.17,2.33
	c3.32,6.47,6.65,12.93,9.92,19.42C209.9,234.25,210.14,235.4,210.39,236.16z"/>
<path class="st0" d="M183.33,589.18c-0.25,4.64-2.91,7.61-4.94,10.59c-2.39,3.52-4.98,6.9-7.18,10.58
	c-1.04,1.74-2.76,4.17-4.93,2.83c-2.38-1.46-0.67-3.98,0.45-5.69c3.97-6.04,8.15-11.94,12.19-17.93c0.82-1.22,1.7-2.02,3.24-1.64
	C183.15,588.16,183.32,588.96,183.33,589.18z"/>
<path class="st0" d="M411.62,254.69c-0.87-1.03-3.03-1.42-1.51-3.74c4.29-6.56,8.38-13.26,12.74-19.77
	c0.77-1.14,2.39-2.92,4.02-1.47c1.02,0.9,1.19,2.35,0.15,4.27c-3.44,6.4-8.13,11.94-11.73,18.2
	C414.46,253.63,413.08,254.05,411.62,254.69z"/>
<path class="st0" d="M514.59,440.05c-3.66,0-7.33-0.11-10.98,0.04c-2.03,0.09-3.6-0.51-4.75-2.08c-1.19-1.62-0.96-2.82,1.31-2.92
	c9.12-0.41,18.22-0.12,27.3,0.91c1.19,0.13,1.75,0.86,1.56,2.06c-0.22,1.37-1.17,1.99-2.46,2c-3.99,0.04-7.99,0.01-11.98,0.01
	C514.59,440.07,514.59,440.06,514.59,440.05z"/>
<path class="st1" d="M86.46,324.72c0.95,0.44,2.18,0.92,3.34,1.53c6.54,3.44,13.07,6.91,19.61,10.37c0.75,0.39,1.6,0.85,1.45,1.79
	c-0.18,1.06-1.06,1.75-2.13,1.63c-1.3-0.14-2.68-0.33-3.82-0.91c-6.46-3.31-12.85-6.74-19.27-10.12c-1.07-0.56-2.05-1.25-1.77-2.65
	C84.09,325.17,85.15,324.99,86.46,324.72z"/>
<path class="st1" d="M489.01,550.92c-0.61,1.43-1.07,2.56-3.38,0.95c-6.26-4.33-12.78-8.27-19.17-12.41
	c-1.3-0.84-3.69-1.54-2.44-3.53c1.16-1.85,3.35-0.93,4.93,0.04c4.37,2.71,8.67,5.54,13,8.33c1.81,1.17,3.6,2.39,5.44,3.52
	C488.45,548.48,489.18,549.26,489.01,550.92z"/>
<path class="st1" d="M316.03,201.67c-0.59,4.95-0.7,9.91-1.84,14.79c-0.33,1.4-0.37,2.64-2.27,2.49c-1.66-0.13-1.89-1.34-1.68-2.48
	c1.52-8.32,0.13-16.84,1.82-25.13c0.23-1.13,0.15-2.51,1.81-2.44c1.71,0.08,2.14,1.36,2.15,2.8
	C316.05,195.02,316.03,198.34,316.03,201.67z"/>
<path class="st1" d="M486.22,285.22c-1.78,3.23-5.24,4.41-7.99,6.32c-4.63,3.22-9.55,6.02-14.27,9.12
	c-1.47,0.96-2.35,0.58-3.42-0.51c-1.29-1.32-0.38-2.16,0.61-2.8c6.29-4.02,12.53-8.12,18.98-11.87
	C481.75,284.55,483.95,283.07,486.22,285.22z"/>
<path class="st0" d="M417.04,586.82c-0.02-1.98,1.12-2.17,2.34-1.74c1.44,0.51,2.48,1.64,3.29,2.92
	c3.53,5.54,7.08,11.07,10.54,16.66c0.94,1.52,2.25,3.65,0.5,4.93c-2.13,1.55-3.59-0.62-4.64-2.24c-3.72-5.78-7.35-11.62-10.94-17.49
	C417.55,588.9,417.35,587.7,417.04,586.82z"/>
<path class="st1" d="M503.95,318.69c0.88-0.1,1.66,0,1.97,1.01c0.4,1.29-0.07,2.4-1.13,3.03c-2.56,1.54-5.13,3.11-7.83,4.36
	c-4.96,2.28-9.56,5.32-14.81,7c-1.22,0.39-2.29,0.69-2.79-0.84c-0.36-1.09,0.1-1.91,1.13-2.45c7.51-3.9,15.02-7.82,22.53-11.73
	C503.31,318.91,503.63,318.82,503.95,318.69z"/>
<path class="st1" d="M107.08,290.03c0.87,0.37,2.19,0.71,3.27,1.41c5.92,3.82,11.75,7.78,17.68,11.58c1.4,0.9,2.68,1.84,1.7,3.47
	c-1.08,1.8-2.65,0.72-3.89-0.06c-6.69-4.26-13.34-8.58-20.02-12.85c-0.88-0.56-1.7-1.1-1.5-2.29
	C104.56,289.87,105.73,290.19,107.08,290.03z"/>
<path class="st0" d="M391.56,208.9c1.11,3.36,0.25,5.56-1.22,8c-3.23,5.35-5.99,10.97-8.92,16.49c-0.59,1.11-1.3,2.1-2.67,1.6
	c-1.51-0.55-1.84-1.81-1.27-3.27c2.82-7.22,6.19-14.18,10.46-20.65C388.55,210.11,390.07,209.75,391.56,208.9z"/>
<path class="st0" d="M77.45,447.08c-4.19,0-7,0-9.82,0c-1.57,0-2.56-0.66-2.42-2.37c0.13-1.49,0.98-2.83,2.47-2.51
	c8.04,1.77,15.99-1.33,24-0.22c1.73,0.24,4.2-0.31,4.15,2.16c-0.04,1.96-2.34,1.95-3.99,1.98
	C86.58,446.21,81.39,447.79,77.45,447.08z"/>
<path class="st1" d="M110.18,557.97c-0.82,0-1.77,0.13-2.17-0.77c-0.48-1.1,0.14-1.83,1.07-2.43c6.78-4.38,13.52-8.81,20.34-13.13
	c1.09-0.69,2.6-1.08,3.53,0.33c0.57,0.86,0.4,2.18-0.47,2.72c-7.1,4.41-13.7,9.64-21.32,13.21
	C110.88,558.02,110.51,557.95,110.18,557.97z"/>
<path class="st1" d="M485.61,501.71c3.21-0.14,5.84,2.82,9.17,4.2c4.56,1.89,8.74,4.7,13.09,7.08c1.22,0.67,2.44,1.25,1.65,2.99
	c-0.91,1.99-2.75,1.54-3.8,0.77c-6.34-4.65-13.93-6.92-20.53-11.07c-1.22-0.77-2.19-1.52-1.98-3.1
	C483.35,501.57,483.92,501.18,485.61,501.71z"/>
<path class="st1" d="M114.09,509.14c0.03,1.34-0.46,2.01-1.23,2.41c-7.13,3.71-14.27,7.41-21.43,11.07
	c-1.23,0.63-2.7,0.93-3.59-0.42c-1.02-1.57,0.36-2.54,1.47-3.13c6.73-3.54,13.48-7.04,20.3-10.4
	C111.1,507.94,113.02,507.25,114.09,509.14z"/>
<path class="st0" d="M160.77,232.15c1.62-0.11,2.56,0.56,3.21,1.59c4.12,6.52,8.24,13.05,12.28,19.62c0.62,1.01,2.02,2.35,0.42,3.44
	c-1.35,0.92-2.82,0.52-3.84-1.01c-4.42-6.63-8.95-13.18-13.25-19.88C158.73,234.55,158.62,232.62,160.77,232.15z"/>
<path class="st1" d="M275.17,199.52c-0.62,5.14,1.41,10.66,1.01,16.32c-0.09,1.27,0.19,2.91-1.72,3.07
	c-2.27,0.18-2.09-1.61-2.23-3.09c-0.71-7.61-1.31-15.24-1.01-22.89c0.05-1.41-0.46-3.39,1.7-3.54c2.58-0.18,2.14,2.03,2.22,3.59
	C275.24,194.98,275.17,196.98,275.17,199.52z"/>
<path class="st1" d="M318.11,637.49c0-3.99-0.02-7.98,0.02-11.97c0.01-0.77-0.22-1.81,0.82-2.08c1.2-0.31,1.82,0.55,2.11,1.56
	c0.41,1.42,0.97,2.86,1.03,4.3c0.25,6.12-0.29,12.26,0.96,18.34c0.44,2.14-0.23,4.67-2.37,4.8c-2.37,0.15-2.48-2.47-2.49-4.47
	c0-3.49,0-6.98,0-10.48C318.17,637.49,318.14,637.49,318.11,637.49z"/>
<path class="st0" d="M202.89,633.21c-1.42-0.74-3.17-0.78-1.47-3.63c3.82-6.41,7.06-13.16,10.47-19.81
	c0.67-1.32,0.95-3.19,2.95-2.45c1.75,0.65,1.53,2.09,0.96,3.75c-2.61,7.54-7.19,14.06-10.63,21.16
	C204.7,633.2,203.89,633.07,202.89,633.21z"/>
<path class="st1" d="M278.09,642.92c0.4-5.74,0.82-11.48,1.19-17.22c0.1-1.5,0.52-2.67,2.28-2.52c1.57,0.14,1.61,1.42,1.63,2.6
	c0.14,8.08-1.73,16.06-1.08,24.17c0.12,1.49-0.82,2-2.21,1.94c-1.32-0.07-1.61-0.93-1.62-2.01c-0.02-2.32,0-4.63,0-6.95
	C278.21,642.93,278.15,642.93,278.09,642.92z"/>
<path class="st0" d="M510.06,400.15c-3.43,0-5.92,0.05-8.4-0.02c-1.25-0.04-2.36-0.64-2.31-2.05c0.05-1.35,1.11-1.99,2.4-1.97
	c7.11,0.1,14.13-1.67,21.26-1.09c1.63,0.13,3.79,0.33,3.8,2.23c0.01,2.19-2.23,1.93-3.86,1.98
	C518.33,399.37,513.79,400.8,510.06,400.15z"/>
<path class="st0" d="M82.71,407.25c-4.59-0.35-9.23,0.28-13.78-0.96c-1.37-0.37-2.84-0.82-2.5-2.4c0.29-1.33,2.05-2.04,3.17-1.76
	c7.51,1.86,15.14,0.16,22.66,0.96c1.53,0.16,3.78,0.41,3.58,2.44c-0.15,1.52-2.15,1.73-3.71,1.72
	C88.99,407.23,85.85,407.25,82.71,407.25z"/>
</svg>
